<?xml version="1.0" encoding="UTF-8"?>
<svg width="150px" height="32px" viewBox="0 0 150 32" version="1.1" xmlns="http://www.w3.org/2000/svg" xmlns:xlink="http://www.w3.org/1999/xlink">
    <!-- Generator: Sketch 48.2 (47327) - http://www.bohemiancoding.com/sketch -->
    <title>Logo</title>
    <desc>Created with Sketch.</desc>
    <defs></defs>
    <g id="01.-Homepage" stroke="none" stroke-width="1" fill="none" fill-rule="evenodd" transform="translate(-315.000000, -30.000000)">
        <g id="Logo" transform="translate(315.000000, 30.000000)">
            <g id="Group">
                <path d="M6.44891382,16.4296334 L3.68646524,12.5739512 L5.19126902,10.2022783 C5.63667078,9.50029495 6.16485139,8.85440442 6.76444172,8.27850961 C10.6958263,4.50249137 16.8316443,4.4393526 20.836008,8.00169014 C19.4619096,9.72948432 17.6208427,11.4142335 15.3128073,13.0559377 C14.5293273,13.6132266 13.5337521,13.8836521 12.8098109,14.2339598 C10.6965147,15.2565622 8.57621569,15.9884534 6.44891382,16.4296334 Z" id="Combined-Shape" fill="#3E405A"></path>
                <path d="M15.3119512,13.0581841 C14.4114976,13.7244091 13.5495575,14.2567455 12.7261309,14.6551932 C8.52750654,16.6868646 4.2897562,17.5277116 0.0128798516,17.1777345 C0.00432086557,16.9665128 -1.731973e-15,16.7541991 -1.77635684e-15,16.5408763 L-1.77635684e-15,-5.92950168e-16 L0.0383148255,0 C7.75946418,-1.41839765e-15 14.1585169,5.66056861 15.3119512,13.0581841 Z M15.497252,15.5347408 L15.497252,21.9782838 L15.497252,24.1786522 L15.497252,26.4808227 C15.497252,28.7491291 17.1973509,30.6572815 19.4506243,30.917998 C18.8139689,31.2919388 18.158677,31.5674439 17.4847486,31.7445133 C16.8189785,31.9194392 16.1559266,32.0045393 15.4955927,31.9998135 L15.4589372,31.9998135 C8.8863928,31.9998135 3.27185027,27.89812 1.03539554,22.1148189 C6.00813783,23.0026554 11.2091734,19.6790976 15.497252,15.5347408 Z" id="Combined-Shape" fill="#FF0633"></path>
            </g>
            <path d="M28.8706821,18.2350631 L27.448486,18.2350631 L27.448486,21.083497 L28.8452858,21.083497 L28.8452858,26.3225806 C28.8452858,29.9339878 30.2420856,31.714259 33.4166307,31.714259 C34.3816924,31.714259 34.9150159,31.5870968 34.9150159,31.5870968 L34.9150159,28.5860683 C34.635656,28.6115007 34.5086742,28.6115007 34.2801069,28.6115007 C32.9340998,28.6115007 32.3245872,28.2045816 32.3245872,26.2208509 L32.3245872,21.083497 L34.8134305,21.083497 L34.8134305,18.2350631 L32.3245872,18.2350631 L32.3245872,15.4374942 L28.8706821,15.4374942 L28.8706821,18.2350631 Z M37.2465014,31.5362319 L40.7511992,31.5362319 L40.7511992,18.2350631 L37.2465014,18.2350631 L37.2465014,31.5362319 Z M36.9417451,15.030575 C36.9417451,16.1750351 37.8306177,17.0397382 38.9734539,17.0397382 C40.1416865,17.0397382 41.0305591,16.1750351 41.0305591,15.030575 C41.0305591,13.886115 40.1416865,13.0214119 38.9734539,13.0214119 C37.8306177,13.0214119 36.9417451,13.886115 36.9417451,15.030575 Z M50.3206474,28.7640954 C48.111164,28.7640954 46.5365897,27.1618513 46.5365897,24.8983637 C46.5365897,22.7620383 47.9333895,21.0071996 50.1936656,21.0071996 C51.6920508,21.0071996 52.7079052,21.7447405 53.2920215,22.2788219 L54.2824796,19.3286583 C53.4190033,18.6674147 52.0475999,17.9044413 50.0920801,17.9044413 C46.0540588,17.9044413 43.0318919,20.8800374 43.0318919,24.9237962 C43.0318919,28.9675549 45.9778697,31.8668537 50.1174765,31.8668537 C52.0475999,31.8668537 53.4951924,31.0530154 54.2570832,30.4426367 L53.3174179,27.5687705 C52.7333016,28.0519869 51.6666545,28.7640954 50.3206474,28.7640954 Z M56.4615869,31.5362319 L59.9662846,31.5362319 L59.9662846,24.6694717 L64.4106477,31.5362319 L68.5248581,31.5362319 L63.4963787,24.2625526 L68.1693091,18.2350631 L64.2328732,18.2350631 L59.9662846,23.830201 L59.9662846,13.1485741 L56.4615869,13.1485741 L56.4615869,31.5362319 Z M68.2753762,24.9237962 C68.2753762,20.9054698 70.9927868,17.9044413 74.7768445,17.9044413 C78.8910549,17.9044413 81.22752,20.6511454 81.22752,25.0000935 C81.22752,25.254418 81.22752,25.5087424 81.2021237,25.7630669 L71.856263,25.7630669 C71.9324521,27.543338 73.3546483,28.8149603 75.3101681,28.8149603 C77.1133097,28.8149603 78.1545604,27.7467976 78.5355058,27.1872838 L80.8465746,28.9421225 C80.3386474,29.883123 78.5609022,31.8668537 75.2593753,31.8668537 C70.9927868,31.8668537 68.2753762,28.91669 68.2753762,24.9237962 Z M71.9578485,23.4741468 L77.6720296,23.4741468 C77.5958405,21.8464703 76.4276079,20.7783076 74.8276372,20.7783076 C73.1768738,20.7783076 72.1102266,21.9482001 71.9578485,23.4741468 Z M83.7621764,18.2350631 L82.3399802,18.2350631 L82.3399802,21.083497 L83.7367801,21.083497 L83.7367801,26.3225806 C83.7367801,29.9339878 85.1335799,31.714259 88.3081249,31.714259 C89.2731866,31.714259 89.8065102,31.5870968 89.8065102,31.5870968 L89.8065102,28.5860683 C89.5271502,28.6115007 89.4001684,28.6115007 89.1716012,28.6115007 C87.8255941,28.6115007 87.2160814,28.2045816 87.2160814,26.2208509 L87.2160814,21.083497 L89.7049248,21.083497 L89.7049248,18.2350631 L87.2160814,18.2350631 L87.2160814,15.4374942 L83.7621764,15.4374942 L83.7621764,18.2350631 Z" id="ticket-copy" fill="#3E405A"></path>
            <path d="M103.913441,19.5575503 C103.151551,18.8963067 101.678562,17.9298738 99.4944748,17.9298738 C95.5580389,17.9298738 92.5866647,20.9309023 92.5866647,24.8983637 C92.5866647,28.8912576 95.4818498,31.8668537 99.5198711,31.8668537 C101.729354,31.8668537 103.253136,30.798691 103.913441,30.2137447 L103.126154,27.9248247 C102.567434,28.4334736 101.373805,29.3999065 99.6722493,29.3999065 C97.2088023,29.3999065 95.3802644,27.4416082 95.3802644,24.8983637 C95.3802644,22.3805517 97.0564242,20.4476858 99.5706638,20.4476858 C101.246824,20.4476858 102.465849,21.312389 103.075362,21.8973352 L103.913441,19.5575503 Z M112.384871,17.9298738 C110.607125,17.9298738 109.261118,18.9471716 108.677002,19.9899018 L108.677002,13.1485741 L105.908799,13.1485741 L105.908799,31.5362319 L108.677002,31.5362319 L108.677002,23.5250117 C108.677002,21.7193081 109.845235,20.4222534 111.597583,20.4222534 C113.121365,20.4222534 114.264201,21.4904161 114.264201,23.3215521 L114.264201,31.5362319 L117.007008,31.5362319 L117.007008,23.5504441 C117.007008,20.6511454 115.813379,17.9298738 112.384871,17.9298738 Z M118.976969,27.4416082 C118.976969,24.8729313 121.059471,23.0672277 124.107034,23.0672277 C125.630815,23.0672277 126.773652,23.5758766 127.281579,24.0336606 L127.281579,22.7874708 C127.281579,21.2615241 126.214932,20.3459561 124.462583,20.3459561 C122.989594,20.3459561 121.719776,20.854605 120.754714,21.3886863 L119.688067,19.4558205 C120.754714,18.7691445 122.532459,17.9298738 124.741943,17.9298738 C128.678379,17.9298738 130.024386,20.0661992 130.024386,22.9654979 L130.024386,31.5362319 L127.611732,31.5362319 L127.383164,30.5443665 C126.697463,31.3073399 125.630815,31.8668537 123.980052,31.8668537 C121.186452,31.8668537 118.976969,30.112015 118.976969,27.4416082 Z M121.745172,27.3653109 C121.745172,28.687798 122.888008,29.6542309 124.564168,29.6542309 C126.189535,29.6542309 127.357768,28.7386629 127.357768,27.3653109 C127.357768,25.9665264 126.214932,25.0763908 124.538772,25.0763908 C122.862612,25.0763908 121.745172,26.0428237 121.745172,27.3653109 Z M132.885211,31.5362319 L135.653414,31.5362319 L135.653414,18.2604956 L132.885211,18.2604956 L132.885211,31.5362319 Z M132.529662,14.9797101 C132.529662,15.9461431 133.291553,16.7091164 134.256615,16.7091164 C135.221676,16.7091164 135.983567,15.9461431 135.983567,14.9797101 C135.983567,14.0132772 135.221676,13.2503039 134.256615,13.2503039 C133.291553,13.2503039 132.529662,14.0132772 132.529662,14.9797101 Z" id="chai" fill="#FF0633"></path>
            <text id="TM" font-family="Geomanist" font-size="7" font-weight="normal" letter-spacing="-0.00136374752" fill="#3E405A">
                <tspan x="141" y="18">TM</tspan>
            </text>
        </g>
    </g>
</svg>